ffmpeg started on 2016-11-27 at 05:20:59
Report written to "Output/NVENCh264/results/ffmpeg/old_town_cross_2160p50llhq3500k.log"
Command line:
Tools/ffmpeg/ffmpeg -benchmark -y -i Input/y4m/old_town_cross_2160p50.y4m -c:v h264_nvenc -preset llhq -b:v 3500k -an Output/NVENCh264/encoded/old_town_cross_2160p50llhq3500k.mkv
ffmpeg version N-82227-gdb23fde Copyright (c) 2000-2016 the FFmpeg developers
  built with gcc 5.4.0 (Ubuntu 5.4.0-6ubuntu1~16.04.2) 20160609
  configuration: --prefix=/home/jaroslav/ffmpeg_build --pkg-config-flags=--static --extra-cflags=-I/home/jaroslav/ffmpeg_build/include --extra-ldflags=-L/home/jaroslav/ffmpeg_build/lib --bindir=/home/jaroslav/bin --enable-gpl --enable-libass --enable-libfdk-aac --enable-libfreetype --enable-libmp3lame --enable-libopus --enable-libtheora --enable-libvorbis --enable-libvpx --enable-libx264 --enable-libx265 --enable-nvenc --enable-libmfx --enable-libxvid --enable-libgsm --enable-libopencore-amrnb --enable-version3 --enable-nonfree
  libavutil      55. 35.100 / 55. 35.100
  libavcodec     57. 66.101 / 57. 66.101
  libavformat    57. 57.100 / 57. 57.100
  libavdevice    57.  2.100 / 57.  2.100
  libavfilter     6. 66.100 /  6. 66.100
  libswscale      4.  3.100 /  4.  3.100
  libswresample   2.  4.100 /  2.  4.100
  libpostproc    54.  2.100 / 54.  2.100
Input #0, yuv4mpegpipe, from 'Input/y4m/old_town_cross_2160p50.y4m':
  Duration: 00:00:10.00, start: 0.000000, bitrate: 4976642 kb/s
    Stream #0:0: Video: rawvideo (I420 / 0x30323449), yuv420p(progressive), 3840x2160, SAR 1:1 DAR 16:9, 50 fps, 50 tbr, 50 tbn, 50 tbc
[h264_nvenc @ 0x2b59120] The variable bitrate rate-control requires the 'qmin' and/or 'qmax' option set.
Output #0, matroska, to 'Output/NVENCh264/encoded/old_town_cross_2160p50llhq3500k.mkv':
  Metadata:
    encoder         : Lavf57.57.100
    Stream #0:0: Video: h264 (h264_nvenc) (Main) (H264 / 0x34363248), yuv420p, 3840x2160 [SAR 1:1 DAR 16:9], q=-1--1, 3500 kb/s, 50 fps, 1k tbn, 50 tbc
    Metadata:
      encoder         : Lavc57.66.101 h264_nvenc
    Side data:
      cpb: bitrate max/min/avg: 0/0/3500000 buffer size: 7000000 vbv_delay: -1
Stream mapping:
  Stream #0:0 -> #0:0 (rawvideo (native) -> h264 (h264_nvenc))
Press [q] to stop, [?] for help
frame=   10 fps=0.0 q=0.0 size=       0kB time=00:00:00.00 bitrate=N/A speed=   0x    frame=   28 fps= 27 q=0.0 size=       0kB time=00:00:00.00 bitrate=N/A speed=   0x    frame=   46 fps= 30 q=41.0 size=       1kB time=00:00:00.30 bitrate=  19.9kbits/s speed=0.195x    frame=   64 fps= 31 q=41.0 size=       1kB time=00:00:00.66 bitrate=   9.0kbits/s speed=0.322x    frame=   82 fps= 32 q=39.0 size=       1kB time=00:00:01.02 bitrate=   5.9kbits/s speed=0.398x    frame=  100 fps= 32 q=38.0 size=       1kB time=00:00:01.38 bitrate=   4.3kbits/s speed=0.447x    frame=  118 fps= 33 q=37.0 size=       1kB time=00:00:01.74 bitrate=   3.4kbits/s speed=0.483x    frame=  136 fps= 33 q=37.0 size=       1kB time=00:00:02.10 bitrate=   2.8kbits/s speed=0.511x    frame=  154 fps= 33 q=36.0 size=       1kB time=00:00:02.46 bitrate=   2.4kbits/s speed=0.532x    frame=  172 fps= 33 q=37.0 size=       1kB time=00:00:02.82 bitrate=   2.1kbits/s speed=0.549x    frame=  190 fps= 34 q=37.0 size=       1kB time=00:00:03.18 bitrate=   1.9kbits/s speed=0.563x    frame=  208 fps= 34 q=37.0 size=       1kB time=00:00:03.54 bitrate=   1.7kbits/s speed=0.574x    frame=  226 fps= 34 q=37.0 size=       1kB time=00:00:03.90 bitrate=   1.5kbits/s speed=0.584x    frame=  244 fps= 34 q=37.0 size=       1kB time=00:00:04.26 bitrate=   1.4kbits/s speed=0.593x    frame=  262 fps= 34 q=36.0 size=       1kB time=00:00:04.62 bitrate=   1.3kbits/s speed= 0.6x    frame=  280 fps= 34 q=37.0 size=       1kB time=00:00:04.98 bitrate=   1.2kbits/s speed=0.606x    frame=  298 fps= 34 q=41.0 size=    2057kB time=00:00:05.34 bitrate=3155.6kbits/s speed=0.612x    frame=  316 fps= 34 q=41.0 size=    2057kB time=00:00:05.70 bitrate=2956.3kbits/s speed=0.617x    frame=  334 fps= 34 q=41.0 size=    2057kB time=00:00:06.06 bitrate=2780.7kbits/s speed=0.621x    frame=  352 fps= 34 q=39.0 size=    2057kB time=00:00:06.42 bitrate=2624.8kbits/s speed=0.626x    frame=  361 fps= 33 q=39.0 size=    2057kB time=00:00:06.60 bitrate=2553.3kbits/s speed=0.612x    frame=  379 fps= 34 q=38.0 size=    2057kB time=00:00:06.96 bitrate=2421.2kbits/s speed=0.616x    frame=  397 fps= 34 q=37.0 size=    2057kB time=00:00:07.32 bitrate=2302.2kbits/s speed=0.62x    frame=  415 fps= 34 q=37.0 size=    2057kB time=00:00:07.68 bitrate=2194.3kbits/s speed=0.623x    frame=  433 fps= 34 q=37.0 size=    2057kB time=00:00:08.04 bitrate=2096.0kbits/s speed=0.627x    frame=  451 fps= 34 q=37.0 size=    2057kB time=00:00:08.40 bitrate=2006.2kbits/s speed=0.63x    frame=  469 fps= 34 q=37.0 size=    2057kB time=00:00:08.76 bitrate=1923.8kbits/s speed=0.632x    frame=  487 fps= 34 q=37.0 size=    2057kB time=00:00:09.12 bitrate=1847.8kbits/s speed=0.635x    frame=  500 fps= 34 q=38.0 Lsize=    4197kB time=00:00:09.98 bitrate=3444.7kbits/s speed=0.675x    
video:4193kB audio:0kB subtitle:0kB other streams:0kB global headers:0kB muxing overhead: 0.100970%
bench: utime=1.136s
bench: maxrss=1408624kB
